<svg id="Layer_1" data-name="Layer 1" xmlns="http://www.w3.org/2000/svg" viewBox="0 0 189.38 38.35"><defs><style>.cls-1{fill:#eaeae8;}</style></defs><title>contactify-logo</title><path class="cls-1" d="M15.17,37.58a13.75,13.75,0,0,1-4.8.77C3.94,38.35,0,33.84,0,26.64S3.94,15,10.37,15a14.43,14.43,0,0,1,4.76.67l1.48.48c.25.1.35.26.25.52l-1.15,3.61c-.1.26-.26.35-.51.26L13.69,20a10.4,10.4,0,0,0-3.32-.42c-3.2,0-5.15,2.59-5.15,7s2,7.1,5.15,7.1a9.52,9.52,0,0,0,3.29-.48l1.51-.44a.35.35,0,0,1,.51.25L17,36.56c.09.26,0,.42-.26.51Z"/><path class="cls-1" d="M39.13,26.64c0,7.17-3.87,11.71-10.17,11.71S18.75,33.81,18.75,26.64,22.62,15,29,15,39.13,19.44,39.13,26.64ZM24,26.64c0,4.38,1.89,7.1,5,7.1s5-2.72,5-7.1-1.86-7-5-7S24,22.16,24,26.64Z"/><path class="cls-1" d="M61.12,37.58a.39.39,0,0,1-.42.42H55a.45.45,0,0,1-.48-.32c-.48-1.12-1.09-2.34-1.6-3.39l-4.55-9.22c-.41-.83-.77-1.57-1.15-2.4-.25-.48-.58-.28-.54.13A37,37,0,0,1,47,28.62v9a.39.39,0,0,1-.42.42H42.27a.39.39,0,0,1-.41-.42V15.73a.39.39,0,0,1,.41-.42H48a.47.47,0,0,1,.48.32C49,16.75,49.57,18,50.08,19l4.57,9.27c.39.84.74,1.57,1.16,2.34.22.51.57.32.51-.13A32.71,32.71,0,0,1,56,24.75v-9a.39.39,0,0,1,.41-.42H60.7a.39.39,0,0,1,.42.42Z"/><path class="cls-1" d="M82.14,19.44a.39.39,0,0,1-.41.42H75.42V37.58A.39.39,0,0,1,75,38H70.69a.39.39,0,0,1-.42-.42V19.86H63.94a.39.39,0,0,1-.42-.42V15.73a.39.39,0,0,1,.42-.42H81.73a.39.39,0,0,1,.41.42Z"/><path class="cls-1" d="M86.37,35l-1,2.69a.49.49,0,0,1-.48.32H80.42c-.33,0-.45-.19-.36-.48L84.57,25.3a94.51,94.51,0,0,0,3-9.63.47.47,0,0,1,.48-.36h6a.47.47,0,0,1,.48.36,94.51,94.51,0,0,0,3,9.63l4.51,12.22c.09.29,0,.48-.35.48H97.21a.49.49,0,0,1-.48-.32l-1-2.69Zm7.32-5.79a54.5,54.5,0,0,1-2.33-7.62c-.1-.38-.48-.38-.58,0a60.3,60.3,0,0,1-2.33,7.62L88,30.48h6.14Z"/><path class="cls-1" d="M117.92,37.58a13.75,13.75,0,0,1-4.8.77c-6.43,0-10.37-4.51-10.37-11.71S106.69,15,113.12,15a14.53,14.53,0,0,1,4.77.67l1.47.48c.25.1.35.26.25.52l-1.15,3.61a.35.35,0,0,1-.51.26l-1.5-.48a10.51,10.51,0,0,0-3.33-.42c-3.2,0-5.15,2.59-5.15,7s2,7.1,5.15,7.1a9.52,9.52,0,0,0,3.29-.48l1.51-.44a.34.34,0,0,1,.51.25l1.28,3.49c.1.26,0,.42-.26.51Z"/><path class="cls-1" d="M140.41,19.44a.39.39,0,0,1-.41.42h-6.31V37.58a.39.39,0,0,1-.41.42H129a.39.39,0,0,1-.42-.42V19.86h-6.33a.39.39,0,0,1-.42-.42V15.73a.39.39,0,0,1,.42-.42H140a.39.39,0,0,1,.41.42Z"/><path class="cls-1" d="M148,37.58a.39.39,0,0,1-.42.42h-4.35a.39.39,0,0,1-.42-.42V15.73a.39.39,0,0,1,.42-.42h4.35a.39.39,0,0,1,.42.42Z"/><path class="cls-1" d="M164.7,25.17a.39.39,0,0,1,.42.41v3.68a.39.39,0,0,1-.42.42h-8.16v7.9a.39.39,0,0,1-.41.42h-4.36a.39.39,0,0,1-.41-.42V15.73a.39.39,0,0,1,.41-.42h15.4c.28,0,.41.2.35.48l-1,3.72a.44.44,0,0,1-.45.35h-9.5v5.31Z"/><path class="cls-1" d="M185.31,23.28c-2.66,5.06-3.65,6.85-3.65,11.3v3a.39.39,0,0,1-.42.42h-4.32a.39.39,0,0,1-.41-.42v-3c0-4.45-1-6.24-3.68-11.3l-4-7.49c-.16-.28,0-.48.32-.48h4.7a.49.49,0,0,1,.48.29l2.24,4.1a37.33,37.33,0,0,1,2.21,5c.13.38.48.38.61,0a34.56,34.56,0,0,1,2.21-5l2.2-4.1a.51.51,0,0,1,.48-.29H189c.35,0,.48.2.32.48Z"/><path class="cls-1" d="M145.56,0a6,6,0,0,0-4.21,10.27,6.62,6.62,0,0,0,.7.59,6,6,0,0,0,7,0,6.62,6.62,0,0,0,.7-.59A6,6,0,0,0,145.56,0Zm3.73,9.56a.8.8,0,0,0-.08-.16,1.76,1.76,0,0,0-.41-.46,3.15,3.15,0,0,0-.59-.38c-.22-.11-.45-.22-.67-.31a2.65,2.65,0,0,1-.93-.6,1.19,1.19,0,0,1-.25-.81c0-.21,0-.35.15-.4s.18-.27.24-.66c0-.16.08-.23.17-.21s.14-.16.17-.52a.52.52,0,0,0-.13-.36l.09-.76a1.6,1.6,0,0,0-.18-.7,1.13,1.13,0,0,0-.8-.61.4.4,0,0,1-.11-.27c0-.11.1-.22.31-.34a1.32,1.32,0,0,0-1,.26,6.4,6.4,0,0,1-.67.56,1.18,1.18,0,0,0-.43.57,1.31,1.31,0,0,0-.1.53l.09.75a.54.54,0,0,0-.13.37c0,.36.08.54.17.52s.15,0,.17.21c.06.39.14.6.24.66s.16.19.16.4a1.19,1.19,0,0,1-.26.81,2.52,2.52,0,0,1-.93.59l-.67.32a3.51,3.51,0,0,0-.59.38,1.76,1.76,0,0,0-.41.46.8.8,0,0,0-.08.16,5.16,5.16,0,1,1,7.46,0Z"/></svg>